<svg width="41" height="149" viewBox="0 0 41 149" fill="none" xmlns="http://www.w3.org/2000/svg">
<path d="M40.4516 4.35439C40.6452 4.15744 40.6424 3.84087 40.4455 3.64731L37.236 0.493094C37.039 0.299535 36.7224 0.302286 36.5289 0.499237C36.3353 0.696188 36.3381 1.01276 36.535 1.20632L39.3879 4.01007L36.5842 6.86296C36.3906 7.05991 36.3934 7.37648 36.5903 7.57004C36.7873 7.7636 37.1038 7.76085 37.2974 7.56389L40.4516 4.35439ZM1.84748 148.342C1.50231 108.611 5.66392 72.6202 12.6611 46.5543C16.1606 33.5178 20.362 22.9923 25.0444 15.7258C29.7399 8.43883 34.8371 4.54962 40.0993 4.5039L40.0907 3.50394C34.3076 3.55418 28.9523 7.81496 24.2038 15.1842C19.4421 22.5738 15.2077 33.2107 11.6953 46.295C4.66864 72.4707 0.50179 108.555 0.847521 148.35L1.84748 148.342Z" fill="white" fill-opacity="0.5"/>
</svg>
