<svg width="46" height="22" viewBox="0 0 46 22" fill="none" xmlns="http://www.w3.org/2000/svg">
<path opacity="0.4" d="M44.8373 2.44793C45.0806 2.57864 45.1718 2.8818 45.0411 3.12504L42.911 7.08898C42.7803 7.33223 42.4772 7.42345 42.2339 7.29274C41.9907 7.16203 41.8994 6.85888 42.0302 6.61563L43.9236 3.09213L40.4001 1.19873C40.1568 1.06802 40.0656 0.764865 40.1963 0.521618C40.327 0.278371 40.6302 0.187143 40.8734 0.317856L44.8373 2.44793ZM0.0867504 20.4996C0.249092 20.3004 0.509284 20.0926 0.813299 19.8833C1.12732 19.6672 1.52544 19.4245 1.995 19.1596C2.93475 18.6294 4.18557 17.9961 5.67557 17.2891C8.65707 15.8743 12.6212 14.1525 17.0247 12.3523C25.8303 8.75246 36.4182 4.82857 44.4566 2.40958L44.7448 3.36716C36.7479 5.77364 26.1921 9.68488 17.4031 13.278C13.0092 15.0742 9.06334 16.7884 6.10428 18.1925C4.62399 18.895 3.39689 19.5169 2.48637 20.0306C2.03079 20.2876 1.66068 20.5141 1.3803 20.7071C1.0899 20.907 0.929502 21.0484 0.86198 21.1313L0.0867504 20.4996Z" fill="white"/>
</svg>
