<svg width="44" height="24" viewBox="0 0 44 24" fill="none" xmlns="http://www.w3.org/2000/svg">
<path d="M43.4872 21.8891C43.5484 22.1584 43.3798 22.4263 43.1105 22.4875L38.7224 23.4847C38.4531 23.5459 38.1852 23.3773 38.124 23.108C38.0628 22.8387 38.2315 22.5708 38.5008 22.5096L42.4013 21.6232L41.5148 17.7226C41.4536 17.4533 41.6223 17.1854 41.8916 17.1242C42.1609 17.063 42.4288 17.2317 42.49 17.501L43.4872 21.8891ZM0.483094 0.000269663C0.739954 -0.00816926 1.0675 0.0515875 1.42498 0.143392C1.79422 0.23822 2.23868 0.379056 2.74685 0.55914C3.76388 0.919555 5.06296 1.44681 6.57473 2.106C9.59981 3.42504 13.5018 5.28341 17.7514 7.42156C26.2494 11.6972 36.1624 17.104 43.2661 21.5768L42.7333 22.423C35.6663 17.9734 25.784 12.5825 17.302 8.31487C13.0616 6.18139 9.17736 4.33176 6.17504 3.02265C4.67312 2.36776 3.39821 1.85091 2.41282 1.5017C1.91978 1.32698 1.50592 1.19663 1.17624 1.11196C0.834775 1.02427 0.622765 0.99622 0.51593 0.99973L0.483094 0.000269663Z" fill="white"/>
</svg>
