<svg width="247" height="428" viewBox="0 0 247 428" fill="none" xmlns="http://www.w3.org/2000/svg">
<path d="M0.709285 417.934C0.287212 418.647 0.522923 419.567 1.23578 419.989L12.8522 426.867C13.5651 427.289 14.4851 427.053 14.9072 426.34C15.3292 425.627 15.0935 424.707 14.3807 424.285L4.05496 418.172L10.1688 407.846C10.5909 407.133 10.3552 406.213 9.64232 405.791C8.92948 405.369 8.00944 405.604 7.58738 406.317L0.709285 417.934ZM135.499 3.39599C222.428 37.5914 258.294 123.114 237.826 209.114C217.359 295.113 140.478 381.671 1.62772 417.245L2.37228 420.151C142.12 384.347 219.979 297.062 240.745 209.809C261.51 122.557 225.101 35.419 136.597 0.604226L135.499 3.39599Z" fill="white"/>
</svg>
